<?xml version="1.0" encoding="utf-8"?>
<!-- Generator: Adobe Illustrator 25.3.1, SVG Export Plug-In . SVG Version: 6.00 Build 0)  -->
<svg version="1.1" id="Layer_1" xmlns="http://www.w3.org/2000/svg" xmlns:xlink="http://www.w3.org/1999/xlink" x="0px" y="0px"
	 viewBox="0 0 24 24" style="enable-background:new 0 0 24 24;" xml:space="preserve">
<style type="text/css">
	.st0{fill:#FF752D;}
</style>
<path class="st0" d="M8,11V9c0-0.6,0.4-1,1-1s1,0.4,1,1v2c0,0.6-0.4,1-1,1S8,11.6,8,11z M15,12c0.6,0,1-0.4,1-1V9c0-0.6-0.4-1-1-1
	s-1,0.4-1,1v2C14,11.6,14.4,12,15,12z M12,14c-1.9,0-3.6,0.9-4.8,2.4c-0.3,0.4-0.3,1.1,0.1,1.4c0.4,0.3,1.1,0.3,1.4-0.1
	c1.3-1.8,3.8-2.2,5.6-0.9c0.3,0.2,0.6,0.5,0.9,0.9c0.3,0.4,1,0.5,1.4,0.1c0.4-0.3,0.5-1,0.1-1.4C15.6,14.9,13.9,14,12,14z M23,12
	c0,6.1-4.9,11-11,11S1,18.1,1,12S5.9,1,12,1C18.1,1,23,5.9,23,12z M21,12c0-5-4-9-9-9s-9,4-9,9s4,9,9,9C17,21,21,17,21,12z"/>
</svg>
