<?xml version="1.0" encoding="utf-8"?>
<!-- Generator: Adobe Illustrator 25.3.1, SVG Export Plug-In . SVG Version: 6.00 Build 0)  -->
<svg version="1.1" id="Layer_1" xmlns="http://www.w3.org/2000/svg" xmlns:xlink="http://www.w3.org/1999/xlink" x="0px" y="0px"
	 viewBox="0 0 24 24" style="enable-background:new 0 0 24 24;" xml:space="preserve">
<style type="text/css">
	.st0{fill:#33BFA6;}
</style>
<path class="st0" d="M12,16c1.3,0,2.5-0.6,3.2-1.6c0.3-0.4,1-0.5,1.4-0.1s0.5,1,0.1,1.4c-2,2.6-5.8,3.1-8.4,1.1
	c-0.4-0.3-0.8-0.7-1.1-1.1c-0.3-0.4-0.3-1.1,0.1-1.4c0.4-0.3,1.1-0.3,1.4,0.1l0,0C9.5,15.4,10.7,16,12,16z M1,12C1,5.9,5.9,1,12,1
	s11,4.9,11,11s-4.9,11-11,11C5.9,23,1,18.1,1,12z M3,12c0,5,4,9,9,9s9-4,9-9s-4-9-9-9C7,3,3,7,3,12z M14,12c0.6,0,1-0.4,1-1
	s0.4-1,1-1c0.6,0,1,0.4,1,1s0.4,1,1,1s1-0.4,1-1c0-1.7-1.3-3-3-3s-3,1.3-3,3C13,11.6,13.4,12,14,12z M7,11c0-0.6,0.4-1,1-1
	s1,0.4,1,1s0.4,1,1,1s1-0.4,1-1c0-1.7-1.3-3-3-3s-3,1.3-3,3c0,0.6,0.4,1,1,1S7,11.6,7,11z"/>
</svg>
