<?xml version="1.0" encoding="utf-8"?>
<!-- Generator: Adobe Illustrator 25.3.1, SVG Export Plug-In . SVG Version: 6.00 Build 0)  -->
<svg version="1.1" id="Layer_1" xmlns="http://www.w3.org/2000/svg" xmlns:xlink="http://www.w3.org/1999/xlink" x="0px" y="0px"
	 viewBox="0 0 24 24" style="enable-background:new 0 0 24 24;" xml:space="preserve">
<style type="text/css">
	.st0{fill:#DF2935;}
</style>
<path class="st0" d="M16.8,16.4c0.3,0.4,0.3,1.1-0.1,1.4c-0.4,0.3-1.1,0.3-1.4-0.1c-1.3-1.8-3.8-2.2-5.6-0.9C9.3,17,9,17.3,8.8,17.6
	c-0.3,0.4-1,0.5-1.4,0.1c-0.4-0.3-0.5-1-0.1-1.4c2-2.6,5.8-3.1,8.4-1.1C16.1,15.6,16.4,15.9,16.8,16.4z M23,12c0,6.1-4.9,11-11,11
	S1,18.1,1,12S5.9,1,12,1C18.1,1,23,5.9,23,12z M21,12c0-5-4-9-9-9s-9,4-9,9s4,9,9,9C17,21,21,17,21,12z M17,9c0,0.6-0.4,1-1,1
	c-0.6,0-1-0.4-1-1s-0.4-1-1-1s-1,0.4-1,1c0,1.7,1.3,3,3,3s3-1.3,3-3c0-0.6-0.4-1-1-1S17,8.4,17,9z M11,9c0-0.6-0.4-1-1-1S9,8.4,9,9
	s-0.4,1-1,1S7,9.6,7,9S6.6,8,6,8S5,8.4,5,9c0,1.7,1.3,3,3,3S11,10.7,11,9z"/>
</svg>
